<svg xmlns="http://www.w3.org/2000/svg" width="123" height="106" viewBox="0 0 123 106">
<g>
<path d="M 48.27,106.00 L 51.56,105.99 L 53.08,105.99 L 56.03,105.98 L 57.39,105.97 L 60.01,105.96 L 61.21,105.95 L 63.53,105.92 L 64.57,105.91 L 66.60,105.88 L 67.51,105.87 L 70.46,105.80 L 69.48,105.84 L 68.36,105.87 L 65.76,105.92 L 64.41,105.94 L 61.31,105.97 L 59.70,105.98 L 56.06,105.99 L 54.18,106.00 L 49.98,106.00 L 43.00,106.00 L 42.93,106.00 M 22.06,96.20 L 22.35,96.27 L 22.75,96.47 L 23.00,96.87 L 23.00,96.99 L 22.70,97.26 L 22.51,97.39 L 21.90,97.67 L 19.25,98.35 L 18.29,98.50 L 16.33,99.12 L 15.38,99.46 L 13.68,100.32 L 12.89,100.76 L 11.75,101.70 L 11.41,102.27 L 11.59,101.72 L 11.92,100.55 L 11.95,100.14 L 11.84,100.10 L 11.52,100.14 L 11.21,100.32 L 10.46,100.78 L 9.88,101.16 L 8.11,102.75 L 7.27,103.92 L 7.18,104.37 L 7.16,104.72 L 7.28,104.87 L 7.64,105.14 L 8.02,105.25 L 8.16,105.28 L 7.99,105.25 L 7.36,105.05 L 7.11,104.94 L 7.00,104.69 L 7.00,104.50 L 7.20,104.00 L 7.33,103.73 L 7.75,103.10 L 8.22,102.45 L 9.64,100.96 L 10.40,100.21 L 12.13,98.79 L 14.63,97.16 L 14.60,97.18 L 14.00,97.75 L 14.00,98.07 L 14.19,98.58 L 14.50,98.73 L 15.25,98.95 L 15.75,98.96 L 16.79,98.89 L 17.33,98.75 L 18.40,98.40 L 18.86,98.11 L 19.63,97.29 L 19.49,96.80 L 19.10,96.56 L 17.72,96.26 L 17.37,96.29 L 17.97,96.16 L 19.81,96.03 L 20.69,96.00 M 72.55,97.90 L 75.48,100.12 L 76.33,100.86 L 77.66,102.08 L 78.24,102.65 L 78.85,103.55 L 78.94,103.76 L 78.94,104.12 L 78.91,104.30 L 78.90,104.32 L 78.54,103.27 L 77.86,102.30 L 77.42,101.94 L 76.59,101.33 L 76.16,101.14 L 75.98,101.14 L 75.64,101.22 L 75.48,101.37 L 75.16,101.74 L 74.99,102.02 L 74.58,102.32 L 74.01,101.52 L 73.46,100.84 L 71.79,99.86 L 70.89,99.42 L 68.70,98.94 L 67.55,98.77 L 65.05,98.82 L 64.27,98.97 L 65.13,98.80 L 66.52,98.67 L 67.13,98.66 L 68.30,98.68 L 68.75,98.74 L 71.12,98.80 L 71.62,98.66 L 71.77,98.55 L 72.00,98.30 L 72.00,98.13 L 71.34,97.23 M 11.69,103.10 L 12.14,103.14 L 13.65,103.21 L 14.49,103.24 L 16.70,103.29 L 17.87,103.32 L 20.66,103.37 L 22.11,103.39 L 25.35,103.43 L 27.02,103.45 L 30.60,103.48 L 34.25,103.51 L 42.07,103.53 L 45.99,103.54 L 53.65,103.52 L 55.51,103.51 L 55.79,103.51 L 55.03,103.52 L 52.60,103.55 L 51.28,103.57 L 48.58,103.59 L 47.12,103.61 L 44.13,103.63 L 42.52,103.64 L 10.91,103.86 L 11.17,103.05 M 59.55,100.05 L 56.69,100.64 L 55.33,100.87 L 53.02,100.92 L 51.93,100.87 L 51.79,100.83 L 53.26,100.91 L 54.30,100.84 L 56.45,100.65 L 57.58,100.44 L 59.82,99.97 M 38.89,98.14 L 38.08,99.04 L 39.04,97.81 M 46.45,96.90 L 47.47,98.47 L 47.45,98.45 L 46.59,97.29 L 46.12,96.27 M 35.14,97.50 L 36.35,96.94 L 36.52,96.84 L 36.36,96.94 L 35.16,97.50 L 34.32,97.69 L 32.49,98.00 L 32.42,98.00 L 34.28,97.69 M 36.85,96.65 L 36.60,96.79 L 36.91,96.50 M 51.49,86.46 L 51.28,86.88 L 50.86,87.66 L 50.63,87.92 L 49.80,89.40 L 49.59,90.40 L 49.71,90.74 L 49.68,91.31 L 49.46,91.71 L 49.26,91.91 L 48.27,92.71 L 47.55,92.98 L 46.10,93.60 L 45.57,93.99 L 45.50,94.24 L 45.48,94.80 L 45.65,95.23 L 45.87,95.71 L 45.78,95.61 L 45.63,95.49 L 45.17,95.29 L 43.16,95.00 L 42.65,95.00 L 41.79,95.14 L 41.39,95.23 L 40.71,95.57 L 40.40,95.76 L 39.87,96.33 L 39.64,96.73 L 40.36,95.22 L 40.57,94.49 L 40.49,94.24 L 40.22,93.79 L 39.88,93.60 L 39.07,93.22 L 38.43,92.97 L 37.71,92.63 L 37.79,92.66 L 38.98,92.83 L 40.25,92.98 L 43.40,92.86 L 44.18,92.80 L 45.67,92.61 L 46.39,92.49 L 47.62,92.20 L 48.19,92.04 L 48.99,91.66 L 49.31,91.46 L 49.50,91.00 L 49.50,90.72 L 49.20,90.27 L 49.00,90.07 L 48.22,89.76 L 47.76,89.62 L 46.40,89.42 L 43.60,89.20 L 42.12,89.12 L 39.81,89.20 L 38.76,89.28 L 37.33,89.67 L 36.73,89.91 L 36.39,90.36 L 36.39,88.70 L 35.95,87.30 L 35.76,87.00 L 45.05,87.00 L 47.42,86.93 L 48.50,86.88 L 50.06,86.71 L 50.74,86.61 L 51.53,86.34 M 67.89,96.14 L 68.56,96.30 L 67.60,96.15 L 66.64,96.15 L 64.69,96.23 L 64.86,96.19 L 66.89,96.11 M 25.65,91.83 L 25.65,91.83 L 25.54,91.79 M 25.94,91.83 L 25.92,91.83 L 25.94,91.83 M 26.55,91.75 L 26.21,91.79 L 26.55,91.75 M 36.39,91.51 L 36.32,91.41 L 36.29,91.17 L 36.29,91.01 M 24.32,90.13 L 24.32,90.13 L 24.21,89.69 M 3.00,84.92 L 7.86,85.10 L 7.17,85.14 L 6.82,85.18 L 5.69,85.38 L 5.44,85.54 L 5.14,85.92 L 5.22,86.18 L 5.94,86.80 L 6.92,87.13 L 7.68,87.26 L 9.41,87.49 L 10.58,87.58 L 13.12,87.74 L 14.72,87.79 L 17.48,87.88 L 19.01,87.96 L 19.63,88.00 L 20.79,88.09 L 21.25,88.15 L 21.65,88.21 L 21.03,88.15 L 20.51,88.10 L 19.20,88.05 L 18.49,88.03 L 16.74,88.01 L 13.54,88.00 L 12.46,88.00 L 10.60,87.98 L 9.72,87.97 L 8.23,87.93 L 7.53,87.91 L 6.35,87.83 L 5.80,87.78 L 4.88,87.66 L 4.02,87.53 L 2.89,87.11 L 1.65,86.17 L 1.47,85.97 L 1.16,85.42 L 1.02,85.11 L 0.96,84.89 L 1.13,85.24 L 1.25,85.28 L 1.93,85.49 L 2.20,85.54 L 2.66,85.60 L 2.72,85.56 L 2.77,84.88 L 2.80,83.83 L 2.82,83.03 L 2.85,81.25 L 2.87,80.11 L 2.90,77.69 L 2.92,76.27 L 2.95,73.30 L 2.96,71.63 L 2.99,68.19 L 3.00,66.32 L 3.00,66.09 M 81.96,84.78 L 81.56,85.06 L 81.38,85.07 L 80.11,85.10 L 78.66,85.12 L 77.70,85.13 L 76.69,85.14 L 77.18,85.13 L 79.33,85.01 L 80.32,84.94 L 81.75,84.78 L 82.05,84.70 M 27.38,81.89 L 26.70,82.57 L 24.93,84.15 L 24.63,84.32 L 26.19,82.97 L 27.40,81.87 M 0.70,83.89 L 0.67,83.73 L 0.65,83.60 M 56.31,78.87 L 56.45,79.54 L 57.09,80.61 L 58.73,82.40 L 59.43,83.10 L 59.40,83.07 L 58.71,82.38 L 57.08,80.61 L 56.44,79.56 L 56.30,78.91 L 56.25,78.51 M 52.76,81.00 L 52.50,82.67 L 52.43,83.01 L 52.82,80.50 L 52.84,80.38 M 0.01,62.12 L 0.04,66.83 L 0.06,68.84 L 0.11,72.64 L 0.14,74.23 L 0.22,77.21 L 0.26,78.41 L 0.37,80.64 L 0.43,81.49 L 0.54,82.76 L 0.49,82.33 L 0.41,81.56 L 0.28,79.50 L 0.22,78.36 L 0.14,75.46 L 0.12,74.68 L 0.09,72.92 L 0.07,72.01 L 0.05,69.99 L 0.04,68.94 L 0.03,66.63 L 0.02,65.44 L 0.01,62.82 L 0.01,61.47 L 0.00,58.52 L 0.00,54.06 M 85.84,31.54 L 85.91,33.87 L 85.94,35.09 L 85.97,37.87 L 85.99,39.31 L 86.00,42.56 L 86.00,44.25 L 86.00,48.01 L 86.00,54.27 L 86.00,56.55 L 86.01,60.67 L 86.01,62.65 L 86.02,66.20 L 86.02,67.91 L 86.01,70.94 L 86.00,72.40 L 85.94,74.95 L 85.91,76.16 L 85.80,78.27 L 85.74,79.28 L 85.56,80.99 L 85.56,81.05 L 85.41,80.62 L 85.01,80.00 L 84.52,79.42 L 84.24,79.34 L 84.12,79.48 L 83.88,79.86 L 83.77,80.23 L 83.53,81.11 L 83.40,81.75 L 83.07,82.66 L 83.09,82.38 L 83.13,81.74 L 83.20,80.08 L 83.24,79.19 L 83.30,77.08 L 83.33,75.98 L 83.38,73.49 L 83.41,72.21 L 83.45,69.41 L 83.50,60.17 L 83.50,42.71 L 83.56,42.69 L 83.90,42.50 L 84.14,42.26 L 84.65,41.12 L 84.98,39.79 L 85.13,38.91 L 85.42,37.02 L 85.53,35.94 L 85.74,33.69 L 85.81,32.49 L 85.84,31.42 M 32.59,62.50 L 32.56,63.25 L 32.53,64.99 L 32.52,68.00 L 32.53,70.89 L 32.91,76.66 L 33.03,78.00 L 33.25,79.74 L 33.16,79.37 L 32.85,77.33 L 32.32,73.10 L 32.20,70.93 L 32.08,66.60 L 32.21,64.61 L 32.66,61.27 M 56.18,76.26 L 56.16,76.82 L 56.17,77.73 L 56.19,77.99 L 56.12,77.48 L 56.17,76.42 L 56.23,75.30 L 56.24,75.16 M 53.50,67.38 L 53.31,74.95 L 53.17,77.14 L 53.30,74.88 L 53.50,67.00 M 46.54,62.61 L 47.62,63.49 L 48.09,64.00 L 48.66,65.44 L 49.00,68.28 L 49.00,68.91 L 48.69,70.04 L 48.50,70.59 L 47.86,71.54 L 47.51,71.98 L 46.62,72.71 L 46.15,73.04 L 45.10,73.52 L 44.56,73.72 L 43.42,73.91 L 42.85,73.97 L 41.70,73.85 L 41.14,73.75 L 40.07,73.29 L 39.56,73.01 L 38.65,72.17 L 38.17,71.64 L 37.90,71.00 L 38.00,71.00 L 38.71,70.30 L 39.00,69.28 L 39.00,68.62 L 39.25,67.41 L 39.17,67.96 L 39.14,68.40 L 39.34,69.28 L 40.04,70.55 L 40.41,71.00 L 41.18,71.57 L 41.58,71.80 L 42.42,71.93 L 42.85,71.94 L 43.80,71.63 L 44.30,71.43 L 45.42,70.68 L 45.95,70.30 L 46.56,69.30 L 46.79,68.78 L 46.81,67.65 L 46.74,67.08 L 46.19,66.00 L 44.75,64.61 L 44.32,64.34 L 44.05,64.27 L 45.47,64.24 L 46.25,63.79 L 46.40,63.39 L 46.46,62.74 L 46.32,62.54 M 56.75,67.95 L 56.54,71.50 L 56.75,67.48 M 40.10,65.56 L 39.83,65.90 L 39.45,66.69 L 39.33,66.99 L 39.41,66.60 L 40.04,65.49 L 40.50,65.09 L 40.60,65.02 M 37.31,65.00 L 37.08,66.20 L 37.27,65.03 L 37.35,64.87 M 56.76,65.69 L 56.76,65.91 L 56.76,65.57 M 41.24,64.57 L 41.49,64.40 L 41.59,64.37 M 76.70,62.29 L 77.10,62.38 L 77.65,62.61 L 78.00,63.00 L 78.00,63.14 L 77.60,63.39 L 77.34,63.51 L 76.51,63.71 L 76.06,63.80 L 74.91,63.92 L 72.94,64.00 L 72.16,64.00 L 70.88,63.93 L 70.29,63.88 L 69.41,63.73 L 69.02,63.64 L 68.59,63.42 L 68.44,63.29 L 68.50,63.00 L 68.58,62.86 L 69.09,62.61 L 69.39,62.49 L 70.24,62.29 L 73.56,62.00 L 74.78,62.00 M 38.35,63.24 L 37.88,63.82 L 38.20,63.20 L 38.36,63.03 L 38.82,62.81 M 11.25,60.16 L 10.43,60.43 L 10.22,60.63 L 9.96,61.09 L 10.04,61.38 L 10.34,62.00 L 10.71,62.38 L 11.40,62.80 L 11.60,62.82 L 10.78,62.89 L 9.06,62.74 L 8.69,62.68 L 8.11,62.50 L 7.86,62.41 L 7.60,62.16 L 7.41,61.86 L 7.61,61.31 L 7.80,61.05 L 8.65,60.63 L 9.15,60.43 L 10.56,60.17 L 12.87,60.02 M 38.85,62.79 L 38.96,62.73 L 39.30,62.59 L 39.79,62.45 M 29.65,62.67 L 29.66,62.56 L 29.66,62.56 M 44.33,62.03 L 43.87,62.00 L 44.19,62.00 M 15.60,60.50 L 15.79,60.79 L 15.85,60.94 L 15.75,61.26 L 15.75,61.27 L 15.76,61.25 L 15.74,60.71 L 15.54,60.47 M 29.92,60.52 L 29.97,60.18 L 29.97,60.17 M 14.89,60.17 L 15.00,60.22 L 14.84,60.16 M 14.10,60.05 L 13.59,60.00 L 13.70,60.00 M 30.00,60.00 L 30.17,59.05 L 30.17,59.04 M 77.11,56.90 L 77.75,57.75 L 77.81,57.94 L 77.54,58.27 L 77.34,58.42 L 76.65,58.65 L 75.88,58.87 L 73.67,59.03 L 72.54,59.06 L 70.42,58.82 L 69.94,58.74 L 69.19,58.49 L 68.86,58.35 L 68.50,58.00 L 68.41,57.85 L 68.51,57.59 L 68.61,57.46 L 69.05,57.24 L 69.31,57.14 L 70.05,56.98 L 71.44,56.85 L 72.42,56.81 L 74.30,56.71 L 74.73,56.69 L 75.43,56.65 L 76.17,56.60 L 76.49,56.57 M 30.31,58.59 L 30.82,56.95 L 32.33,53.37 L 30.83,56.95 M 34.82,53.59 L 34.98,53.26 L 35.31,52.77 L 35.67,52.28 M 76.70,51.29 L 77.10,51.38 L 77.65,51.61 L 78.00,52.00 L 78.00,52.14 L 77.60,52.39 L 77.34,52.51 L 76.51,52.71 L 76.06,52.80 L 74.91,52.92 L 72.94,53.00 L 72.16,53.00 L 70.88,52.93 L 70.29,52.88 L 69.41,52.73 L 69.02,52.64 L 68.59,52.42 L 68.44,52.29 L 68.50,52.00 L 68.58,51.86 L 69.09,51.61 L 69.39,51.49 L 70.24,51.29 L 73.56,51.00 L 74.78,51.00 M 0.99,22.91 L 0.86,23.27 L 0.61,24.11 L 0.51,24.76 L 0.34,26.22 L 0.27,27.26 L 0.16,29.56 L 0.12,31.10 L 0.09,32.71 L 0.08,33.63 L 0.05,35.54 L 0.04,36.61 L 0.03,38.85 L 0.02,40.10 L 0.01,42.68 L 0.01,44.12 L 0.00,47.09 L 0.00,48.72 L 0.00,52.10 L 0.00,51.87 L 0.00,48.52 L 0.00,46.90 L 0.01,43.95 L 0.01,42.53 L 0.02,39.96 L 0.03,38.72 L 0.04,36.51 L 0.05,35.44 L 0.08,33.55 L 0.09,32.64 L 0.12,31.04 L 0.16,29.51 L 0.27,27.23 L 0.34,26.20 L 0.51,24.75 L 0.61,24.10 L 0.86,23.27 L 0.99,22.91 L 1.33,22.47 L 1.95,22.03 L 1.33,22.47 M 35.93,51.92 L 35.99,51.84 L 36.36,51.48 L 36.41,51.44 M 39.15,43.38 L 38.58,43.99 L 36.29,46.69 L 35.21,48.30 L 33.14,51.63 L 33.16,51.58 L 35.25,48.22 L 36.33,46.60 L 38.63,43.92 L 39.19,43.32 L 40.13,42.46 M 45.50,45.00 L 48.05,47.40 L 47.93,47.47 L 45.77,45.31 L 45.11,44.65 L 44.20,43.82 L 43.79,43.47 L 43.16,43.23 L 42.86,43.17 L 42.25,43.47 L 41.64,43.97 L 42.95,42.60 M 39.38,47.41 L 39.32,47.36 L 39.31,47.31 M 19.97,44.07 L 20.99,44.12 L 22.64,44.28 L 23.38,44.37 L 24.38,44.60 L 25.00,45.00 L 25.00,45.15 L 24.34,45.41 L 23.91,45.53 L 22.49,45.72 L 21.69,45.81 L 19.62,45.93 L 15.94,46.00 L 18.31,45.92 L 19.69,45.80 L 20.24,45.71 L 21.22,45.51 L 21.53,45.39 L 22.00,45.14 L 22.00,45.00 L 21.54,44.57 L 20.82,44.35 L 20.32,44.27 L 17.94,44.02 L 16.55,44.02 L 13.75,44.10 L 12.64,44.27 L 11.60,44.45 L 11.23,44.57 L 10.60,44.84 L 10.50,45.00 L 10.46,45.30 L 10.66,45.42 L 11.19,45.65 L 11.66,45.73 L 12.72,45.89 L 13.44,45.93 L 14.99,46.00 L 14.49,46.00 L 12.13,45.93 L 11.03,45.89 L 9.40,45.74 L 8.68,45.65 L 7.84,45.43 L 7.52,45.30 L 7.50,45.00 L 7.58,44.86 L 8.41,44.61 L 8.91,44.49 L 10.42,44.29 L 11.24,44.20 L 13.23,44.08 L 16.56,44.00 L 17.80,44.00 M 44.64,40.69 L 45.14,41.11 L 44.52,40.65 L 44.42,40.61 M 82.41,23.08 L 82.46,23.13 L 82.62,23.63 L 82.75,24.27 L 82.81,24.71 L 83.05,26.76 L 83.14,28.00 L 83.46,32.50 L 45.73,32.76 L 39.77,32.81 L 36.10,32.84 L 34.41,32.86 L 31.14,32.90 L 29.65,32.92 L 26.75,32.96 L 25.44,32.99 L 22.90,33.04 L 21.75,33.07 L 19.55,33.13 L 18.58,33.16 L 16.70,33.23 L 15.87,33.27 L 14.29,33.35 L 13.61,33.39 L 12.32,33.49 L 11.77,33.54 L 10.74,33.64 L 10.32,33.70 L 8.87,33.95 L 8.48,34.09 L 7.89,34.41 L 7.86,34.59 L 7.98,34.98 L 8.25,35.21 L 9.07,35.26 L 10.34,35.30 L 11.31,35.33 L 13.45,35.39 L 14.82,35.42 L 17.73,35.48 L 19.44,35.51 L 23.02,35.58 L 25.03,35.62 L 29.17,35.69 L 31.42,35.73 L 36.02,35.81 L 38.46,35.84 L 43.42,35.92 L 46.00,35.96 L 83.50,36.50 L 43.25,36.24 L 3.23,35.98 L 3.23,35.84 L 3.27,34.23 L 3.33,32.05 L 3.53,32.88 L 4.00,34.00 L 4.32,34.49 L 4.73,34.80 L 4.98,34.26 L 4.99,34.14 L 5.43,33.93 L 5.73,33.83 L 6.85,33.65 L 7.50,33.57 L 9.40,33.42 L 10.45,33.35 L 13.22,33.23 L 14.73,33.17 L 18.47,33.07 L 19.47,33.05 L 21.67,33.01 L 22.81,32.99 L 25.29,32.95 L 26.56,32.93 L 29.33,32.89 L 30.75,32.88 L 33.82,32.84 L 35.40,32.83 L 38.79,32.80 L 44.23,32.76 L 83.46,32.50 L 83.14,28.00 L 83.05,26.76 L 82.79,24.69 L 82.72,24.25 L 82.58,23.59 L 82.39,23.08 M 80.01,20.01 L 80.91,20.04 L 81.67,20.20 L 81.12,20.13 L 79.84,20.01 L 79.10,20.02 L 77.14,20.09 L 76.07,20.21 L 75.65,20.29 L 74.89,20.47 L 74.63,20.57 L 74.20,20.79 L 74.11,20.91 L 74.02,21.16 L 74.11,21.28 L 74.38,21.53 L 74.66,21.65 L 75.30,21.87 L 75.77,21.98 L 76.80,22.17 L 77.47,22.24 L 79.20,22.49 L 78.34,22.40 L 75.99,22.19 L 75.05,22.13 L 73.56,21.94 L 72.87,21.85 L 71.88,21.62 L 71.44,21.51 L 70.94,21.26 L 70.75,21.14 L 70.73,20.89 L 70.78,20.77 L 71.23,20.55 L 71.52,20.44 L 72.44,20.27 L 72.96,20.18 L 74.33,20.07 L 76.90,20.00 L 78.09,20.00 M 82.32,20.34 L 82.97,20.55 L 83.09,20.67 L 82.74,20.53 L 81.77,20.22 M 29.66,98.10 L 29.66,98.10 L 31.36,98.00 L 31.44,98.00 M 78.96,87.78 L 79.89,87.65 L 81.60,87.37 L 82.23,87.17 L 83.32,86.75 L 83.07,86.96 L 82.39,87.43 L 80.54,87.86 L 79.52,88.02 L 76.88,88.05 L 71.89,88.00 L 76.53,87.92 M 53.48,64.32 L 53.47,63.51 L 53.42,62.09 L 53.35,60.73 L 53.10,58.66 L 52.95,57.70 L 52.48,56.15 L 51.44,54.00 L 50.94,53.14 L 50.15,52.01 L 49.76,51.52 L 48.81,50.97 L 48.27,50.74 L 46.67,50.57 L 46.21,50.54 L 45.07,50.51 L 43.00,50.50 L 42.22,50.50 L 40.93,50.51 L 40.32,50.52 L 39.33,50.57 L 38.40,50.63 L 37.19,50.97 L 36.74,51.16 L 37.12,50.82 L 37.53,50.60 L 38.36,50.24 L 38.80,50.18 L 40.24,49.75 L 40.83,49.33 L 40.92,49.09 L 40.97,48.59 L 40.78,48.35 L 40.25,47.89 L 39.75,47.70 L 39.39,47.41 L 39.78,47.62 L 40.02,47.71 L 40.68,47.84 L 41.05,47.90 L 41.99,47.96 L 43.73,48.00 L 46.97,48.00 L 45.78,48.66 L 43.50,49.93 L 46.19,49.96 L 48.29,50.31 L 49.37,50.79 L 49.55,51.09 L 50.31,51.65 L 50.89,51.51 L 51.23,51.17 L 51.37,50.42 L 51.18,49.64 L 50.98,49.16 L 50.30,47.78 L 51.42,49.60 L 53.47,53.49 L 53.94,54.44 L 54.73,56.25 L 55.61,58.72 L 56.20,60.75 L 56.22,60.97 L 56.18,60.72 L 55.86,60.03 L 55.53,59.40 L 55.33,59.18 L 54.92,58.80 L 54.69,58.71 L 54.14,58.99 L 53.86,59.74 L 53.77,60.43 L 53.61,62.03 L 53.56,63.17 L 53.50,65.72 L 53.50,66.03 M 43.16,62.00 L 43.17,62.00 L 43.14,62.00 Z" fill="rgba(145,145,145,1)"/>
<path d="M 76.59,101.33 L 77.42,101.94 L 77.86,102.30 L 78.54,103.27 L 79.00,104.62 L 79.00,104.77 L 78.68,105.01 L 78.45,105.13 L 77.58,105.32 L 77.06,105.41 L 76.95,105.42 L 77.33,105.35 L 78.09,105.18 L 78.26,105.07 L 78.50,104.85 L 78.45,104.72 L 78.04,104.38 L 77.48,104.19 L 77.03,104.11 L 76.02,103.96 L 75.32,103.90 L 73.80,103.79 L 72.82,103.74 L 70.70,103.67 L 69.40,103.64 L 66.64,103.60 L 64.99,103.59 L 61.50,103.57 L 59.46,103.58 L 55.19,103.59 L 52.73,103.60 L 46.40,103.64 L 42.57,103.67 L 40.83,103.68 L 37.49,103.71 L 35.99,103.72 L 33.11,103.74 L 31.82,103.76 L 29.36,103.78 L 28.27,103.80 L 26.20,103.83 L 25.30,103.84 L 23.59,103.88 L 22.86,103.90 L 21.47,103.94 L 20.89,103.96 L 18.84,104.06 L 18.19,104.12 L 17.09,104.25 L 16.82,104.33 L 16.41,104.51 L 16.38,104.62 L 16.41,104.86 L 16.50,105.00 L 16.77,105.15 L 17.17,105.22 L 18.12,105.36 L 18.84,105.42 L 20.46,105.54 L 21.50,105.59 L 23.74,105.69 L 25.09,105.74 L 27.93,105.82 L 29.57,105.85 L 33.00,105.91 L 34.92,105.93 L 38.90,105.97 L 41.08,105.98 L 45.25,106.00 L 42.93,106.00 L 40.88,106.00 L 37.11,106.00 L 35.29,106.00 L 31.96,105.99 L 30.34,105.99 L 27.42,105.98 L 26.00,105.97 L 23.46,105.95 L 22.23,105.94 L 20.04,105.92 L 18.98,105.91 L 17.12,105.88 L 16.22,105.86 L 14.66,105.82 L 13.92,105.79 L 12.64,105.74 L 12.51,105.74 L 12.52,105.73 L 12.63,105.48 L 12.55,105.29 L 12.30,104.86 L 12.05,104.56 L 11.00,103.86 L 42.52,103.64 L 44.13,103.63 L 47.12,103.61 L 48.58,103.59 L 51.28,103.57 L 52.60,103.55 L 55.03,103.52 L 56.20,103.51 L 58.37,103.47 L 60.47,103.44 L 63.93,103.35 L 65.56,103.30 L 68.15,103.19 L 69.36,103.13 L 71.20,102.99 L 72.04,102.91 L 73.24,102.73 L 73.77,102.64 L 74.45,102.41 L 74.99,102.02 L 75.16,101.74 L 75.48,101.37 L 75.64,101.22 L 75.98,101.14 L 76.16,101.14 M 11.95,100.14 L 11.92,100.55 L 11.59,101.72 L 10.92,103.81 L 10.90,103.80 L 10.00,103.62 L 9.57,103.67 L 8.75,103.89 L 8.46,104.13 L 8.00,104.70 L 8.00,105.11 L 8.10,105.27 L 8.02,105.25 L 7.64,105.14 L 7.28,104.87 L 7.16,104.72 L 7.18,104.37 L 7.27,103.92 L 8.11,102.75 L 9.88,101.16 L 10.46,100.78 L 11.21,100.32 L 11.52,100.14 L 11.84,100.10 M 34.32,97.69 L 35.16,97.50 L 36.36,96.94 L 36.85,96.65 L 37.11,96.02 L 37.10,95.87 L 36.86,95.58 L 36.11,95.20 L 35.77,95.09 L 34.96,94.18 L 33.92,92.28 L 33.74,91.81 L 33.37,91.13 L 33.17,90.82 L 32.74,90.45 L 32.51,90.31 L 31.97,90.22 L 30.98,90.39 L 30.44,90.56 L 28.98,91.01 L 26.94,91.63 L 26.55,91.75 L 25.94,91.83 L 25.65,91.83 L 25.21,91.67 L 25.01,91.55 L 24.70,91.13 L 24.33,90.17 L 24.21,89.69 L 23.78,89.03 L 23.50,88.74 L 22.43,88.36 L 22.10,88.28 L 21.25,88.15 L 20.79,88.09 L 19.63,88.00 L 19.01,87.96 L 17.48,87.88 L 14.72,87.79 L 13.12,87.74 L 10.58,87.58 L 9.41,87.49 L 7.68,87.26 L 6.92,87.13 L 5.94,86.80 L 5.22,86.18 L 5.14,85.92 L 5.44,85.54 L 5.69,85.38 L 6.82,85.18 L 7.17,85.14 L 8.05,85.09 L 8.52,85.07 L 9.68,85.05 L 10.30,85.04 L 11.58,85.06 L 11.19,85.07 L 9.98,85.18 L 9.55,85.27 L 8.81,85.46 L 8.63,85.58 L 8.40,85.84 L 8.50,86.00 L 8.82,86.31 L 9.13,86.43 L 9.83,86.65 L 10.29,86.73 L 12.35,86.98 L 13.50,86.98 L 15.80,86.89 L 16.71,86.73 L 17.56,86.55 L 17.87,86.43 L 18.40,86.16 L 18.50,86.00 L 18.37,85.58 L 17.88,85.35 L 17.45,85.27 L 16.86,85.17 L 17.43,85.19 L 18.34,85.20 L 19.81,85.20 L 20.50,85.20 L 21.62,85.14 L 22.14,85.10 L 22.99,84.95 L 23.78,84.79 L 24.93,84.15 L 26.70,82.57 L 27.38,81.89 L 28.28,80.78 L 28.67,80.20 L 29.11,78.75 L 29.20,78.33 L 29.33,77.30 L 29.38,76.75 L 29.44,75.39 L 29.47,74.66 L 29.49,72.88 L 29.50,71.01 L 29.60,71.25 L 29.79,71.42 L 30.22,71.67 L 30.50,71.67 L 31.21,71.42 L 31.56,70.99 L 31.67,70.61 L 31.87,69.74 L 31.92,69.12 L 32.00,67.74 L 32.00,66.83 L 31.92,64.55 L 31.79,63.43 L 31.67,63.06 L 31.40,62.41 L 31.21,62.24 L 30.78,62.00 L 30.50,62.00 L 29.79,62.24 L 29.68,62.39 L 29.97,60.17 L 30.17,59.04 L 30.83,56.95 L 32.33,53.37 L 33.14,51.63 L 35.21,48.30 L 36.29,46.69 L 38.58,43.99 L 39.15,43.38 L 40.25,42.35 L 40.79,41.87 L 41.80,41.17 L 42.28,40.86 L 43.14,40.53 L 44.20,40.52 L 44.52,40.65 L 45.28,41.22 L 45.68,41.54 L 46.54,42.44 L 47.41,43.39 L 49.11,45.78 L 49.90,46.98 L 50.98,49.16 L 51.18,49.64 L 51.37,50.42 L 51.23,51.17 L 50.89,51.51 L 50.31,51.65 L 49.55,51.09 L 49.37,50.79 L 48.29,50.31 L 46.19,49.96 L 43.50,49.93 L 45.78,48.66 L 48.05,47.40 L 45.50,45.00 L 42.95,42.60 L 40.73,44.92 L 40.34,45.32 L 39.80,45.99 L 39.56,46.30 L 39.33,46.79 L 39.25,47.02 L 39.32,47.36 L 39.75,47.70 L 40.25,47.89 L 40.78,48.35 L 40.97,48.59 L 40.92,49.09 L 40.83,49.33 L 40.24,49.75 L 38.80,50.18 L 38.36,50.24 L 37.53,50.60 L 37.12,50.82 L 36.36,51.48 L 35.99,51.84 L 35.31,52.77 L 34.98,53.26 L 34.39,54.45 L 33.82,55.70 L 32.97,58.90 L 32.21,64.61 L 32.08,66.60 L 32.20,70.93 L 32.32,73.10 L 32.85,77.33 L 33.16,79.37 L 34.02,82.88 L 34.25,83.69 L 34.75,85.06 L 35.57,86.70 L 35.95,87.30 L 36.39,88.70 L 36.39,90.43 L 36.29,90.69 L 36.29,91.17 L 36.32,91.41 L 36.59,91.84 L 36.76,92.05 L 37.30,92.44 L 38.43,92.97 L 39.07,93.22 L 39.88,93.60 L 40.22,93.79 L 40.49,94.24 L 40.57,94.49 L 40.36,95.22 L 39.57,96.87 L 39.16,97.66 L 38.04,99.09 L 37.76,99.41 L 37.20,99.91 L 36.46,100.38 L 35.92,100.58 L 34.29,100.84 L 33.43,100.94 L 31.57,100.98 L 31.13,100.98 L 32.45,100.56 L 33.20,99.91 L 33.36,99.50 L 33.49,98.82 L 33.40,98.47 L 33.27,98.35 L 32.92,98.14 L 32.65,98.08 L 32.04,98.00 L 32.49,98.00 M 54.92,58.80 L 55.33,59.18 L 55.53,59.40 L 55.86,60.03 L 56.18,60.72 L 56.57,62.81 L 56.72,63.97 L 56.78,66.94 L 56.74,67.81 L 56.56,66.58 L 56.33,65.65 L 56.18,65.30 L 55.89,64.69 L 55.73,64.51 L 55.40,64.21 L 55.24,64.19 L 54.92,64.22 L 54.77,64.37 L 54.49,64.73 L 54.38,65.04 L 54.17,65.74 L 54.10,66.22 L 54.00,67.27 L 54.00,67.92 L 54.03,69.31 L 54.08,69.83 L 54.22,70.77 L 54.35,71.10 L 54.63,71.64 L 54.83,71.79 L 55.27,72.00 L 55.56,72.00 L 56.29,71.82 L 56.53,71.59 L 56.49,72.27 L 56.41,73.15 L 56.28,74.61 L 56.23,75.30 L 56.17,76.42 L 56.12,77.48 L 56.30,78.91 L 56.44,79.56 L 57.08,80.61 L 58.71,82.38 L 59.40,83.07 L 60.52,84.00 L 61.10,84.40 L 62.48,84.85 L 62.87,84.94 L 63.82,85.06 L 64.32,85.11 L 65.57,85.17 L 66.23,85.19 L 67.85,85.21 L 68.32,85.20 L 67.34,85.29 L 66.59,85.49 L 66.36,85.61 L 66.00,85.86 L 66.00,86.00 L 66.11,86.27 L 66.31,86.39 L 66.80,86.62 L 67.16,86.71 L 68.86,87.00 L 69.94,87.00 L 72.91,86.71 L 73.68,86.51 L 73.95,86.39 L 74.42,86.14 L 74.50,86.00 L 74.44,85.59 L 74.06,85.36 L 73.72,85.27 L 73.24,85.18 L 74.48,85.17 L 75.65,85.15 L 77.70,85.13 L 78.66,85.12 L 80.11,85.10 L 81.38,85.07 L 81.56,85.06 L 81.96,84.78 L 82.16,84.61 L 82.54,84.06 L 83.40,81.75 L 83.53,81.11 L 83.77,80.23 L 83.88,79.86 L 84.12,79.48 L 84.24,79.34 L 84.52,79.42 L 85.01,80.00 L 85.41,80.62 L 85.81,81.81 L 85.96,82.40 L 85.87,83.53 L 85.76,84.07 L 85.19,85.09 L 83.78,86.44 L 83.37,86.73 L 82.23,87.17 L 81.60,87.37 L 79.89,87.65 L 78.96,87.78 L 76.53,87.92 L 71.89,88.00 L 70.77,88.00 L 68.89,88.01 L 68.00,88.02 L 66.57,88.05 L 65.90,88.08 L 64.83,88.15 L 64.35,88.19 L 63.60,88.32 L 62.92,88.46 L 62.22,88.96 L 61.68,90.13 L 61.57,90.53 L 61.31,91.11 L 61.16,91.37 L 60.79,91.66 L 60.59,91.78 L 60.06,91.83 L 59.06,91.63 L 58.49,91.46 L 57.02,91.01 L 55.02,90.39 L 54.64,90.27 L 54.03,90.22 L 53.74,90.23 L 53.26,90.45 L 53.03,90.60 L 52.63,91.13 L 52.08,92.28 L 51.82,92.97 L 51.04,94.18 L 49.89,95.20 L 49.52,95.33 L 49.21,95.86 L 49.45,96.92 L 49.55,97.08 L 49.96,97.34 L 50.20,97.45 L 50.87,97.61 L 51.61,97.75 L 53.84,97.76 L 55.06,97.71 L 58.18,97.35 L 62.53,96.62 L 62.51,96.65 L 62.51,96.85 L 62.55,97.27 L 62.65,97.54 L 63.06,98.28 L 63.33,98.47 L 63.92,98.73 L 64.23,98.70 L 64.85,98.52 L 65.12,98.26 L 65.62,97.65 L 65.77,97.19 L 65.45,96.35 L 65.15,96.21 L 66.64,96.15 L 67.60,96.15 L 69.30,96.41 L 70.10,96.58 L 71.25,97.10 L 72.00,98.13 L 72.00,98.30 L 71.77,98.55 L 71.62,98.66 L 71.12,98.80 L 68.75,98.74 L 68.30,98.68 L 67.13,98.66 L 66.52,98.67 L 65.13,98.80 L 61.00,99.62 L 59.87,99.96 L 57.58,100.44 L 56.45,100.65 L 55.07,100.77 L 56.12,100.57 L 57.20,99.93 L 57.36,99.50 L 57.47,98.78 L 57.31,98.43 L 57.08,98.32 L 56.54,98.12 L 56.11,98.07 L 55.14,98.00 L 54.47,98.00 L 52.91,98.09 L 52.11,98.24 L 51.83,98.36 L 51.34,98.64 L 51.20,98.82 L 51.00,99.24 L 51.00,99.50 L 51.06,99.96 L 51.18,100.15 L 51.49,100.49 L 51.73,100.62 L 52.28,100.84 L 52.40,100.86 L 51.43,100.81 L 50.57,100.73 L 49.23,100.33 L 49.05,100.26 L 48.62,99.90 L 48.39,99.69 L 47.89,99.11 L 46.45,96.90 L 46.08,96.19 L 45.65,95.23 L 45.48,94.80 L 45.50,94.24 L 45.57,93.99 L 46.10,93.60 L 47.55,92.98 L 48.27,92.71 L 49.26,91.91 L 49.46,91.71 L 49.68,91.31 L 49.71,90.74 L 49.59,90.40 L 49.68,89.95 L 49.75,90.35 L 50.19,90.79 L 51.10,91.44 L 51.55,91.41 L 52.41,91.16 L 52.77,90.74 L 53.44,89.73 L 53.66,89.00 L 54.00,87.40 L 54.00,86.44 L 54.11,85.52 L 54.18,85.90 L 54.67,86.85 L 55.75,87.92 L 56.38,88.29 L 57.33,88.72 L 57.75,88.88 L 58.33,88.87 L 58.50,88.83 L 58.47,88.92 L 58.46,89.37 L 58.54,90.21 L 58.78,90.44 L 59.27,90.85 L 59.51,90.93 L 60.00,91.00 L 60.22,90.91 L 60.66,90.65 L 60.86,90.40 L 61.24,89.82 L 61.39,89.42 L 61.91,87.61 L 62.01,86.63 L 61.94,86.29 L 61.71,85.70 L 61.49,85.58 L 60.97,85.46 L 60.60,85.60 L 59.55,86.47 L 58.99,87.34 L 59.00,87.15 L 59.00,86.63 L 58.47,85.43 L 58.14,84.83 L 57.22,83.74 L 56.74,83.25 L 55.78,82.64 L 55.55,82.54 L 55.15,82.48 L 54.86,82.59 L 54.86,82.58 L 55.00,82.50 L 55.84,81.22 L 56.05,80.00 L 55.99,79.38 L 55.77,78.16 L 55.52,77.72 L 54.92,77.00 L 54.50,77.00 L 53.41,77.51 L 53.09,78.00 L 53.17,77.17 L 53.31,74.95 L 53.50,67.38 L 53.50,65.72 L 53.56,63.17 L 53.61,62.03 L 53.77,60.43 L 53.86,59.74 L 54.14,58.99 L 54.69,58.71 M 19.10,96.56 L 19.49,96.80 L 19.63,97.29 L 18.86,98.11 L 18.40,98.40 L 17.33,98.75 L 16.79,98.89 L 15.75,98.96 L 15.25,98.95 L 14.50,98.73 L 14.19,98.58 L 14.00,98.07 L 14.00,97.75 L 14.60,97.18 L 14.97,96.91 L 16.03,96.52 L 16.58,96.36 L 17.72,96.26 M 37.39,94.27 L 37.13,95.23 L 37.23,96.15 L 37.41,96.62 L 37.66,97.20 L 37.78,97.38 L 38.03,97.68 L 38.17,97.72 L 38.47,97.73 L 38.64,97.64 L 39.01,97.39 L 39.23,97.17 L 39.90,96.00 L 39.67,95.27 L 39.22,94.82 L 38.19,94.17 L 37.57,94.10 M 26.60,85.66 L 25.96,85.00 L 25.50,85.00 L 24.55,85.65 L 24.12,86.59 L 24.03,87.17 L 23.92,88.38 L 24.02,88.93 L 24.32,89.98 L 24.64,90.31 L 25.21,90.71 L 25.49,90.69 L 26.02,90.51 L 26.24,90.24 L 26.66,89.58 L 26.79,89.11 L 27.00,88.07 L 27.00,87.72 L 27.11,88.40 L 27.19,88.68 L 27.54,88.89 L 27.76,88.95 L 28.47,88.74 L 28.88,88.58 L 30.07,87.96 L 30.61,87.68 L 31.36,86.70 L 31.67,86.20 L 31.58,88.13 L 31.89,89.36 L 32.19,89.73 L 32.90,90.39 L 33.30,90.56 L 34.10,90.79 L 34.40,90.69 L 35.06,89.99 L 35.22,89.10 L 35.16,88.41 L 34.95,86.83 L 34.71,85.75 L 34.11,83.38 L 33.67,81.84 L 32.95,79.52 L 32.57,78.64 L 32.38,78.49 L 31.97,78.38 L 31.69,78.56 L 31.07,79.07 L 30.62,79.52 L 29.64,80.58 L 29.30,81.08 L 29.30,81.28 L 29.39,81.68 L 29.59,81.89 L 30.11,82.34 L 30.52,82.64 L 30.87,83.10 L 30.70,83.00 L 30.24,83.00 L 29.34,83.36 L 28.91,83.59 L 28.15,84.31 L 27.81,84.70 L 27.32,85.66 L 27.00,87.20 L 27.00,87.44 M 52.57,82.21 L 52.30,84.03 L 52.11,84.75 L 51.72,86.08 L 51.46,86.60 L 51.08,87.26 L 51.28,86.88 L 51.49,86.46 L 51.86,85.37 L 52.03,84.79 L 52.35,83.40 L 52.50,82.67 L 52.58,82.16 M 49.36,20.86 L 50.97,20.87 L 53.93,20.90 L 55.35,20.92 L 57.82,20.98 L 58.99,21.01 L 60.87,21.09 L 61.72,21.13 L 62.90,21.23 L 63.75,21.41 L 63.81,21.48 L 63.58,21.60 L 63.39,21.66 L 62.48,21.76 L 61.92,21.81 L 60.14,21.89 L 59.63,21.92 L 58.41,21.96 L 57.77,21.98 L 56.27,22.02 L 55.48,22.04 L 53.67,22.08 L 52.72,22.09 L 50.57,22.13 L 49.45,22.15 L 46.94,22.19 L 45.63,22.21 L 42.74,22.25 L 41.24,22.27 L 37.93,22.31 L 36.22,22.33 L 32.48,22.38 L 30.55,22.40 L 26.35,22.45 L 19.50,22.52 L 17.57,22.54 L 13.97,22.59 L 12.24,22.62 L 9.27,22.67 L 8.58,22.69 L 7.38,22.72 L 6.82,22.73 L 5.89,22.76 L 5.47,22.77 L 4.85,22.80 L 4.33,22.83 L 4.23,22.85 L 4.04,23.28 L 3.95,23.56 L 3.78,24.56 L 3.71,25.14 L 3.58,26.77 L 3.51,27.66 L 3.41,29.96 L 3.35,31.20 L 3.27,34.23 L 3.23,35.84 L 3.17,39.64 L 3.14,41.64 L 3.10,46.27 L 3.06,54.19 L 3.05,56.34 L 3.03,60.46 L 3.02,62.49 L 3.00,66.32 L 2.99,68.19 L 2.96,71.63 L 2.95,73.30 L 2.92,76.27 L 2.90,77.69 L 2.87,80.11 L 2.85,81.25 L 2.82,83.03 L 2.80,83.83 L 2.77,84.88 L 2.72,85.56 L 2.66,85.60 L 2.20,85.54 L 1.93,85.49 L 1.25,85.28 L 1.13,85.24 L 0.92,84.81 L 0.82,84.54 L 0.65,83.59 L 0.57,83.04 L 0.55,82.82 L 0.59,83.11 L 0.69,83.41 L 0.89,83.86 L 1.02,83.90 L 1.28,83.86 L 1.44,83.70 L 1.84,83.07 L 2.06,82.42 L 2.16,81.96 L 2.34,80.92 L 2.42,80.23 L 2.56,78.73 L 2.62,77.77 L 2.73,75.70 L 2.77,74.43 L 2.85,71.72 L 2.88,70.09 L 2.93,66.64 L 2.95,64.62 L 2.99,60.35 L 3.00,57.88 L 3.04,51.64 L 3.05,47.88 L 3.06,46.19 L 3.08,42.94 L 3.08,41.49 L 3.09,38.71 L 3.09,37.49 L 3.09,35.14 L 3.08,34.12 L 3.07,32.17 L 3.06,31.33 L 3.04,29.74 L 3.03,29.07 L 2.99,27.80 L 2.97,27.28 L 2.86,25.46 L 2.78,24.89 L 2.61,23.96 L 2.49,23.73 L 2.23,23.40 L 2.07,23.36 L 1.72,23.33 L 1.50,23.33 L 1.06,23.56 L 0.82,23.99 L 0.72,24.39 L 0.53,25.33 L 0.45,26.04 L 0.32,27.64 L 0.26,28.73 L 0.17,31.13 L 0.13,32.68 L 0.10,34.29 L 0.09,35.19 L 0.06,37.06 L 0.05,38.10 L 0.03,40.25 L 0.03,41.43 L 0.02,43.88 L 0.01,45.21 L 0.00,47.97 L 0.00,49.47 L 0.00,52.56 L 0.00,52.10 L 0.00,48.72 L 0.00,47.09 L 0.01,44.12 L 0.01,42.68 L 0.02,40.10 L 0.03,38.85 L 0.04,36.61 L 0.05,35.54 L 0.08,33.63 L 0.09,32.71 L 0.12,31.10 L 0.16,29.56 L 0.27,27.26 L 0.34,26.22 L 0.51,24.76 L 0.61,24.11 L 0.86,23.27 L 0.99,22.91 L 1.33,22.47 L 1.95,22.03 L 2.08,21.96 L 2.98,21.82 L 3.52,21.76 L 5.16,21.64 L 6.06,21.58 L 8.33,21.47 L 9.54,21.41 L 12.33,21.31 L 13.78,21.26 L 16.98,21.18 L 18.63,21.14 L 22.13,21.06 L 25.69,20.99 L 33.22,20.90 L 36.99,20.86 L 44.27,20.84 L 46.03,20.84 M 44.91,62.07 L 45.38,62.12 L 45.99,62.31 L 46.24,62.42 L 46.46,62.74 L 46.40,63.39 L 46.25,63.79 L 45.47,64.24 L 43.93,64.27 L 43.29,64.10 L 42.07,64.25 L 41.49,64.40 L 40.50,65.09 L 40.04,65.49 L 39.41,66.60 L 39.00,68.62 L 39.00,69.28 L 38.71,70.30 L 38.00,71.00 L 37.86,71.00 L 37.61,70.74 L 37.49,70.57 L 37.29,70.03 L 37.11,69.43 L 37.00,67.70 L 37.00,66.63 L 37.31,65.00 L 37.53,64.27 L 38.35,63.24 L 38.83,62.80 L 40.25,62.29 L 43.17,62.00 L 43.87,62.00 M 14.39,60.08 L 14.76,60.13 L 15.28,60.32 L 15.50,60.42 L 15.74,60.71 L 15.76,61.25 L 15.64,61.60 L 14.92,62.18 L 14.51,62.43 L 13.46,62.75 L 12.93,62.87 L 11.88,62.85 L 11.40,62.80 L 10.71,62.38 L 10.34,62.00 L 10.04,61.38 L 9.96,61.09 L 10.22,60.63 L 10.43,60.43 L 11.25,60.16 L 13.08,60.00 L 13.59,60.00 M 14.23,49.16 L 13.76,49.18 L 12.16,49.37 L 11.52,49.63 L 10.92,49.92 L 10.70,50.11 L 10.32,50.51 L 10.24,50.75 L 10.19,51.15 L 10.30,51.31 L 10.61,51.60 L 10.91,51.70 L 11.20,51.77 L 9.90,51.71 L 9.27,51.65 L 8.32,51.45 L 7.91,51.34 L 7.52,51.04 L 7.34,50.75 L 7.49,50.13 L 8.31,49.44 L 8.60,49.33 L 9.49,49.18 L 9.99,49.12 L 11.19,49.07 L 12.44,49.05 M 15.27,49.23 L 16.65,49.35 L 18.92,49.75 L 19.40,49.86 L 20.07,50.10 L 20.50,50.50 L 20.50,50.67 L 19.98,50.97 L 19.64,51.11 L 18.59,51.35 L 18.01,51.46 L 17.22,51.55 L 17.41,51.42 L 17.46,51.22 L 17.46,50.76 L 17.34,50.45 L 16.86,49.85 L 16.34,49.54 L 16.02,49.44 L 14.82,49.20 M 37.08,46.60 L 36.35,47.11 L 36.04,47.49 L 35.49,48.33 L 35.37,48.76 L 35.25,49.60 L 35.45,49.91 L 35.94,50.37 L 36.31,50.45 L 37.13,50.50 L 37.53,50.35 L 38.50,49.62 L 38.89,48.93 L 38.95,48.55 L 38.97,47.78 L 38.84,47.44 L 38.46,46.79 L 38.11,46.57 M 20.32,44.27 L 20.82,44.35 L 21.54,44.57 L 22.00,45.00 L 22.00,45.14 L 21.53,45.39 L 21.22,45.51 L 20.24,45.71 L 19.69,45.80 L 18.31,45.92 L 15.94,46.00 L 14.99,46.00 L 13.44,45.93 L 12.72,45.89 L 11.66,45.73 L 11.19,45.65 L 10.66,45.42 L 10.46,45.30 L 10.50,45.00 L 10.60,44.84 L 11.23,44.57 L 11.60,44.45 L 12.64,44.27 L 13.75,44.10 L 16.55,44.02 L 17.94,44.02 M 81.12,20.13 L 81.73,20.21 L 82.74,20.53 L 83.21,20.72 L 83.98,21.28 L 84.34,21.59 L 84.89,22.44 L 85.14,22.90 L 85.49,24.08 L 85.64,24.71 L 85.82,26.26 L 85.89,27.08 L 85.91,29.04 L 85.81,32.49 L 85.74,33.69 L 85.53,35.94 L 85.42,37.02 L 85.13,38.91 L 84.98,39.79 L 84.65,41.12 L 84.14,42.26 L 83.90,42.50 L 83.56,42.69 L 83.42,42.73 L 83.24,42.50 L 83.17,42.33 L 83.13,41.63 L 83.13,41.21 L 83.21,39.99 L 83.50,36.50 L 46.00,35.96 L 43.42,35.92 L 38.46,35.84 L 36.02,35.81 L 31.42,35.73 L 29.17,35.69 L 25.03,35.62 L 23.02,35.58 L 19.44,35.51 L 17.73,35.48 L 14.82,35.42 L 13.45,35.39 L 11.31,35.33 L 10.34,35.30 L 9.07,35.26 L 8.25,35.21 L 7.98,34.98 L 7.86,34.59 L 7.89,34.41 L 8.48,34.09 L 8.87,33.95 L 10.32,33.70 L 10.74,33.64 L 11.77,33.54 L 12.32,33.49 L 13.61,33.39 L 14.29,33.35 L 15.87,33.27 L 16.70,33.23 L 18.58,33.16 L 19.55,33.13 L 20.87,33.09 L 19.78,33.29 L 19.50,33.49 L 19.45,33.61 L 19.41,33.86 L 19.50,34.00 L 20.11,34.52 L 20.67,34.71 L 21.93,35.00 L 22.62,35.00 L 24.22,34.71 L 24.50,34.51 L 24.55,34.39 L 24.59,34.14 L 24.50,34.00 L 23.33,33.29 L 22.30,33.05 L 22.90,33.04 L 25.44,32.99 L 26.75,32.96 L 29.65,32.92 L 31.14,32.90 L 34.41,32.86 L 36.10,32.84 L 39.77,32.81 L 45.73,32.76 L 82.81,32.50 L 82.61,32.59 L 82.06,32.94 L 81.39,33.46 L 81.16,33.79 L 81.15,33.97 L 81.20,34.35 L 81.33,34.59 L 81.66,35.09 L 81.93,35.41 L 82.71,36.20 L 83.07,36.36 L 83.77,36.52 L 84.05,36.38 L 84.58,35.97 L 84.74,35.56 L 85.00,34.60 L 85.00,33.94 L 84.85,32.69 L 84.58,32.20 L 84.35,32.12 L 83.82,32.08 L 83.45,32.21 L 83.44,32.21 L 83.14,28.00 L 83.05,26.76 L 82.81,24.71 L 82.75,24.27 L 82.62,23.63 L 82.46,23.13 L 82.41,23.08 L 81.95,22.95 L 81.68,22.88 L 80.84,22.72 L 77.47,22.24 L 76.80,22.17 L 75.77,21.98 L 75.30,21.87 L 74.66,21.65 L 74.38,21.53 L 74.11,21.28 L 74.02,21.16 L 74.11,20.91 L 74.20,20.79 L 74.63,20.57 L 74.89,20.47 L 75.65,20.29 L 76.07,20.21 L 77.14,20.09 L 79.10,20.02 L 79.84,20.01 M 52.26,33.00 L 46.96,33.02 L 43.65,33.05 L 42.11,33.07 L 39.13,33.12 L 37.78,33.15 L 35.17,33.22 L 34.04,33.27 L 31.87,33.35 L 30.96,33.40 L 29.28,33.51 L 28.64,33.56 L 27.49,33.68 L 27.14,33.74 L 26.58,33.87 L 26.54,33.94 L 26.65,34.34 L 27.05,34.61 L 27.38,34.73 L 28.13,34.97 L 28.61,35.07 L 29.64,35.24 L 30.23,35.30 L 31.24,35.38 L 31.91,35.41 L 33.35,35.46 L 34.21,35.48 L 36.02,35.51 L 37.04,35.51 L 39.16,35.52 L 40.30,35.51 L 45.11,35.46 L 47.71,35.41 L 52.99,35.29 L 55.62,35.21 L 60.84,35.04 L 63.25,34.93 L 65.61,34.83 L 66.71,34.77 L 68.84,34.66 L 69.80,34.60 L 71.63,34.49 L 72.41,34.43 L 73.89,34.31 L 74.46,34.25 L 75.50,34.12 L 75.84,34.06 L 76.39,33.94 L 76.45,33.88 L 76.17,33.70 L 75.51,33.58 L 74.96,33.53 L 73.71,33.43 L 72.89,33.38 L 71.11,33.29 L 70.04,33.25 L 67.77,33.17 L 66.47,33.14 L 63.77,33.09 L 62.28,33.07 L 59.19,33.03 L 57.51,33.02 L 54.08,33.00 M 13.22,24.30 L 14.42,24.93 L 14.89,25.32 L 15.50,26.27 L 15.76,26.76 L 15.94,27.82 L 15.97,28.36 L 15.71,29.40 L 14.80,30.80 L 14.40,31.20 L 13.59,31.69 L 13.18,31.87 L 12.37,31.94 L 11.97,31.92 L 11.18,31.56 L 10.79,31.33 L 10.04,30.55 L 9.71,30.15 L 9.34,29.28 L 9.20,28.85 L 9.17,27.96 L 9.19,27.52 L 9.44,26.69 L 9.59,26.28 L 10.07,25.57 L 10.32,25.24 L 10.96,24.73 L 11.30,24.51 L 12.04,24.27 L 12.43,24.19 M 22.95,24.30 L 24.15,24.93 L 24.69,25.30 L 25.43,26.30 L 25.73,26.82 L 25.90,28.00 L 25.39,29.75 L 25.00,30.37 L 24.11,31.18 L 23.65,31.51 L 23.10,31.63 L 23.31,31.32 L 23.41,31.03 L 23.69,29.65 L 23.67,28.85 L 23.52,27.22 L 23.29,26.56 L 23.03,25.94 L 22.86,25.72 L 22.50,25.33 L 22.29,25.26 L 21.77,25.31 L 21.44,25.54 L 21.28,25.73 L 20.69,26.69 L 20.49,27.32 L 20.15,28.66 L 20.13,29.31 L 20.21,30.54 L 20.45,30.92 L 19.61,30.12 L 19.04,29.49 L 18.60,28.06 L 18.49,27.35 L 18.86,26.03 L 19.12,25.41 L 20.14,24.56 L 20.43,24.39 L 21.09,24.20 L 22.22,24.19 M 32.87,24.30 L 33.33,24.41 L 34.21,24.94 L 35.39,26.25 L 35.79,26.88 L 35.99,28.00 L 35.39,29.75 L 34.99,30.40 L 34.15,31.04 L 34.26,30.75 L 34.39,29.02 L 34.09,27.73 L 33.81,27.14 L 33.18,26.01 L 32.79,25.62 L 31.97,25.00 L 31.55,25.00 L 30.38,25.69 L 29.72,26.70 L 29.50,27.33 L 29.13,28.66 L 29.12,29.30 L 29.18,30.26 L 29.03,30.06 L 28.72,29.48 L 28.47,28.38 L 28.41,27.84 L 28.58,26.87 L 28.71,26.41 L 29.21,25.63 L 29.49,25.27 L 30.23,24.73 L 30.61,24.50 L 31.49,24.26 L 31.94,24.19 M 12.00,29.00 L 11.29,29.29 L 11.00,29.72 L 11.00,30.00 L 11.11,30.52 L 11.29,30.71 L 11.72,31.00 L 12.00,31.00 L 12.71,30.71 L 13.00,30.27 L 13.00,30.00 L 12.71,29.29 L 12.27,29.00 M 12.24,26.85 L 11.72,27.17 L 11.19,27.92 L 11.09,28.22 L 11.43,28.68 L 12.50,29.00 L 12.96,29.00 L 13.57,28.68 L 13.81,28.49 L 13.81,27.92 L 13.71,27.63 L 13.28,27.17 L 12.50,26.85 M 29.33,99.05 L 29.33,99.50 L 29.53,100.29 L 29.84,100.56 L 30.52,100.96 L 29.09,100.81 L 28.74,100.76 L 28.20,100.61 L 27.95,100.53 L 27.67,100.33 L 27.27,99.94 L 27.00,99.30 L 26.96,99.01 L 27.40,98.57 L 27.72,98.38 L 28.88,98.14 L 31.44,98.00 L 31.64,98.00 L 29.97,98.41 Z" fill="rgba(151,151,151,1)"/>
<path d="M 8.00,105.11 L 8.00,104.70 L 8.46,104.13 L 8.75,103.89 L 9.57,103.67 L 10.00,103.62 L 10.90,103.80 L 12.05,104.56 L 12.30,104.86 L 12.55,105.29 L 12.63,105.48 L 12.52,105.73 L 12.42,105.83 L 11.90,105.94 L 10.62,106.00 L 9.90,106.00 L 8.77,105.74 L 8.30,105.58 M 16.50,105.00 L 16.41,104.86 L 16.38,104.62 L 16.41,104.51 L 16.82,104.33 L 17.09,104.25 L 18.19,104.12 L 18.84,104.06 L 20.89,103.96 L 21.47,103.94 L 22.86,103.90 L 23.59,103.88 L 25.30,103.84 L 26.20,103.83 L 28.27,103.80 L 29.36,103.78 L 31.82,103.76 L 33.11,103.74 L 35.99,103.72 L 37.49,103.71 L 40.83,103.68 L 42.57,103.67 L 46.40,103.64 L 52.73,103.60 L 55.19,103.59 L 59.46,103.58 L 61.50,103.57 L 64.99,103.59 L 66.64,103.60 L 69.40,103.64 L 70.70,103.67 L 72.82,103.74 L 73.80,103.79 L 75.32,103.90 L 76.02,103.96 L 77.03,104.11 L 77.48,104.19 L 78.04,104.38 L 78.45,104.72 L 78.50,104.85 L 78.26,105.07 L 78.09,105.18 L 77.33,105.35 L 76.87,105.44 L 75.50,105.57 L 74.72,105.64 L 72.63,105.74 L 71.49,105.79 L 68.59,105.86 L 67.04,105.90 L 63.24,105.94 L 61.22,105.96 L 56.43,105.99 L 55.17,105.99 L 52.44,106.00 L 48.03,106.00 L 45.59,106.00 L 41.08,105.98 L 38.90,105.97 L 34.92,105.93 L 33.00,105.91 L 29.57,105.85 L 27.93,105.82 L 25.09,105.74 L 23.74,105.69 L 21.50,105.59 L 20.46,105.54 L 18.84,105.42 L 18.12,105.36 L 17.17,105.22 L 16.77,105.15 M 29.33,99.50 L 29.33,99.05 L 29.97,98.41 L 31.64,98.00 L 32.04,98.00 L 32.65,98.08 L 32.92,98.14 L 33.27,98.35 L 33.40,98.47 L 33.49,98.82 L 33.36,99.50 L 33.20,99.91 L 32.45,100.56 L 31.06,101.00 L 30.58,101.00 L 29.84,100.56 L 29.53,100.29 M 51.00,99.50 L 51.00,99.24 L 51.20,98.82 L 51.34,98.64 L 51.83,98.36 L 52.11,98.24 L 52.91,98.09 L 54.47,98.00 L 55.14,98.00 L 56.11,98.07 L 56.54,98.12 L 57.08,98.32 L 57.31,98.43 L 57.47,98.78 L 57.36,99.50 L 57.20,99.93 L 56.12,100.57 L 53.89,101.00 L 53.42,101.00 L 52.64,100.90 L 52.28,100.84 L 51.73,100.62 L 51.49,100.49 L 51.18,100.15 L 51.06,99.96 M 62.65,97.54 L 62.55,97.27 L 62.51,96.85 L 62.51,96.65 L 62.69,96.37 L 62.81,96.24 L 63.22,96.09 L 64.11,96.00 L 64.68,96.00 L 65.45,96.35 L 65.77,97.19 L 65.62,97.65 L 65.12,98.26 L 64.85,98.52 L 64.23,98.70 L 63.92,98.73 L 63.33,98.47 L 63.06,98.28 M 37.41,96.62 L 37.23,96.15 L 37.13,95.23 L 37.39,94.27 L 37.57,94.10 L 38.19,94.17 L 39.22,94.82 L 39.67,95.27 L 39.90,96.00 L 39.23,97.17 L 39.01,97.39 L 38.64,97.64 L 38.47,97.73 L 38.17,97.72 L 38.03,97.68 L 37.78,97.38 L 37.66,97.20 M 50.19,90.79 L 49.75,90.35 L 49.61,89.51 L 49.64,89.29 L 49.89,88.80 L 50.56,87.93 L 50.91,87.55 L 51.46,86.60 L 51.72,86.08 L 52.11,84.75 L 52.30,84.03 L 52.57,82.21 L 52.89,78.75 L 52.92,78.27 L 53.41,77.51 L 54.50,77.00 L 54.92,77.00 L 55.52,77.72 L 55.77,78.16 L 55.99,79.38 L 56.05,80.00 L 55.84,81.22 L 55.00,82.50 L 54.86,82.58 L 54.61,83.00 L 54.49,83.24 L 54.29,83.91 L 54.00,86.44 L 54.00,87.40 L 53.66,89.00 L 53.44,89.73 L 52.77,90.74 L 52.41,91.16 L 51.55,91.41 L 51.10,91.44 M 24.64,90.31 L 24.32,89.98 L 24.02,88.93 L 23.92,88.38 L 24.03,87.17 L 24.12,86.59 L 24.55,85.65 L 25.50,85.00 L 25.96,85.00 L 26.60,85.66 L 27.00,87.44 L 27.00,88.07 L 26.79,89.11 L 26.66,89.58 L 26.24,90.24 L 26.02,90.51 L 25.49,90.69 L 25.21,90.71 M 32.19,89.73 L 31.89,89.36 L 31.58,88.13 L 31.67,86.15 L 31.87,85.41 L 31.67,84.15 L 30.52,82.64 L 30.11,82.34 L 29.59,81.89 L 29.39,81.68 L 29.30,81.28 L 29.30,81.08 L 29.64,80.58 L 30.62,79.52 L 31.07,79.07 L 31.69,78.56 L 31.97,78.38 L 32.38,78.49 L 32.57,78.64 L 32.95,79.52 L 33.67,81.84 L 34.11,83.38 L 34.71,85.75 L 34.95,86.83 L 35.16,88.41 L 35.22,89.10 L 35.06,89.99 L 34.40,90.69 L 34.10,90.79 L 33.30,90.56 L 32.90,90.39 M 58.78,90.44 L 58.54,90.21 L 58.46,89.37 L 58.47,88.92 L 58.78,87.89 L 58.97,87.38 L 59.55,86.47 L 60.60,85.60 L 60.97,85.46 L 61.49,85.58 L 61.71,85.70 L 61.94,86.29 L 62.01,86.63 L 61.91,87.61 L 61.39,89.42 L 61.24,89.82 L 60.86,90.40 L 60.66,90.65 L 60.22,90.91 L 60.00,91.00 L 59.51,90.93 L 59.27,90.85 M 8.50,86.00 L 8.40,85.84 L 8.63,85.58 L 8.81,85.46 L 9.55,85.27 L 9.98,85.18 L 11.19,85.07 L 13.50,85.00 L 14.37,85.00 L 15.81,85.07 L 16.47,85.11 L 17.45,85.27 L 17.88,85.35 L 18.37,85.58 L 18.50,86.00 L 18.40,86.16 L 17.87,86.43 L 17.56,86.55 L 16.71,86.73 L 15.80,86.89 L 13.50,86.98 L 12.35,86.98 L 10.29,86.73 L 9.83,86.65 L 9.13,86.43 L 8.82,86.31 M 66.00,86.00 L 66.00,85.86 L 66.36,85.61 L 66.59,85.49 L 67.34,85.29 L 70.56,85.00 L 71.26,85.00 L 72.40,85.07 L 72.93,85.12 L 73.72,85.27 L 74.06,85.36 L 74.44,85.59 L 74.50,86.00 L 74.42,86.14 L 73.95,86.39 L 73.68,86.51 L 72.91,86.71 L 69.94,87.00 L 68.86,87.00 L 67.16,86.71 L 66.80,86.62 L 66.31,86.39 L 66.11,86.27 M 0.00,54.24 L 0.00,52.56 L 0.00,49.47 L 0.00,47.97 L 0.01,45.21 L 0.02,43.88 L 0.03,41.43 L 0.03,40.25 L 0.05,38.10 L 0.06,37.06 L 0.09,35.19 L 0.10,34.29 L 0.13,32.68 L 0.17,31.13 L 0.26,28.73 L 0.32,27.64 L 0.45,26.04 L 0.53,25.33 L 0.72,24.39 L 0.82,23.99 L 1.06,23.56 L 1.50,23.33 L 1.72,23.33 L 2.07,23.36 L 2.23,23.40 L 2.49,23.73 L 2.61,23.96 L 2.78,24.89 L 2.86,25.46 L 2.97,27.28 L 2.99,27.80 L 3.03,29.07 L 3.04,29.74 L 3.06,31.33 L 3.07,32.17 L 3.08,34.12 L 3.09,35.14 L 3.09,37.49 L 3.09,38.71 L 3.08,41.49 L 3.08,42.94 L 3.06,46.19 L 3.05,47.88 L 3.04,51.64 L 3.00,57.88 L 2.99,60.35 L 2.95,64.62 L 2.93,66.64 L 2.88,70.09 L 2.85,71.72 L 2.77,74.43 L 2.73,75.70 L 2.62,77.77 L 2.56,78.73 L 2.42,80.23 L 2.34,80.92 L 2.16,81.96 L 2.06,82.42 L 1.84,83.07 L 1.44,83.70 L 1.28,83.86 L 1.02,83.90 L 0.89,83.86 L 0.69,83.41 L 0.59,83.11 L 0.43,82.02 L 0.36,81.39 L 0.25,79.52 L 0.20,78.48 L 0.13,75.71 L 0.11,74.95 L 0.08,73.24 L 0.07,72.35 L 0.05,70.36 L 0.04,69.33 L 0.03,67.05 L 0.02,65.87 L 0.01,63.28 L 0.01,61.94 L 0.00,59.01 L 0.00,57.51 M 29.00,66.83 L 29.00,65.93 L 29.08,64.55 L 29.13,63.92 L 29.33,63.06 L 29.44,62.68 L 29.79,62.24 L 30.50,62.00 L 30.78,62.00 L 31.21,62.24 L 31.40,62.41 L 31.67,63.06 L 31.79,63.43 L 31.92,64.55 L 32.00,66.83 L 32.00,67.74 L 31.92,69.12 L 31.87,69.74 L 31.67,70.61 L 31.56,70.99 L 31.21,71.42 L 30.50,71.67 L 30.22,71.67 L 29.79,71.42 L 29.60,71.25 L 29.33,70.61 L 29.21,70.23 L 29.08,69.12 L 29.02,68.50 M 54.00,67.92 L 54.00,67.27 L 54.10,66.22 L 54.17,65.74 L 54.38,65.04 L 54.49,64.73 L 54.77,64.37 L 54.92,64.22 L 55.24,64.19 L 55.40,64.21 L 55.73,64.51 L 55.89,64.69 L 56.18,65.30 L 56.33,65.65 L 56.56,66.58 L 56.81,68.33 L 56.87,69.03 L 56.88,70.08 L 56.87,70.56 L 56.72,71.21 L 56.62,71.50 L 56.29,71.82 L 55.56,72.00 L 55.27,72.00 L 54.83,71.79 L 54.63,71.64 L 54.35,71.10 L 54.22,70.77 L 54.08,69.83 L 54.03,69.31 M 10.24,50.75 L 10.32,50.51 L 10.70,50.11 L 10.92,49.92 L 11.52,49.63 L 12.16,49.37 L 13.76,49.18 L 14.56,49.15 L 16.02,49.44 L 16.34,49.54 L 16.86,49.85 L 17.34,50.45 L 17.46,50.76 L 17.46,51.22 L 17.41,51.42 L 17.01,51.69 L 16.75,51.81 L 15.87,51.93 L 13.89,52.00 L 13.19,52.00 L 12.10,51.93 L 11.60,51.88 L 10.91,51.70 L 10.61,51.60 L 10.30,51.31 L 10.19,51.15 M 35.45,49.91 L 35.25,49.60 L 35.37,48.76 L 35.49,48.33 L 36.04,47.49 L 36.35,47.11 L 37.08,46.60 L 38.11,46.57 L 38.46,46.79 L 38.84,47.44 L 38.97,47.78 L 38.95,48.55 L 38.89,48.93 L 38.50,49.62 L 37.53,50.35 L 37.13,50.50 L 36.31,50.45 L 35.94,50.37 M 81.93,35.41 L 81.66,35.09 L 81.33,34.59 L 81.20,34.35 L 81.15,33.97 L 81.16,33.79 L 81.39,33.46 L 82.06,32.94 L 82.61,32.59 L 83.45,32.21 L 83.82,32.08 L 84.35,32.12 L 84.58,32.20 L 84.85,32.69 L 85.00,33.94 L 85.00,34.60 L 84.74,35.56 L 84.58,35.97 L 84.05,36.38 L 83.77,36.52 L 83.07,36.36 L 82.71,36.20 M 30.23,35.30 L 29.64,35.24 L 28.61,35.07 L 28.13,34.97 L 27.38,34.73 L 27.05,34.61 L 26.65,34.34 L 26.54,33.94 L 26.58,33.87 L 27.14,33.74 L 27.49,33.68 L 28.64,33.56 L 29.28,33.51 L 30.96,33.40 L 31.87,33.35 L 34.04,33.27 L 35.17,33.22 L 37.78,33.15 L 39.13,33.12 L 42.11,33.07 L 43.65,33.05 L 46.96,33.02 L 52.26,33.00 L 54.08,33.00 L 57.51,33.02 L 59.19,33.03 L 62.28,33.07 L 63.77,33.09 L 66.47,33.14 L 67.77,33.17 L 70.04,33.25 L 71.11,33.29 L 72.89,33.38 L 73.71,33.43 L 74.96,33.53 L 75.51,33.58 L 76.17,33.70 L 76.45,33.88 L 76.39,33.94 L 75.84,34.06 L 75.50,34.12 L 74.46,34.25 L 73.89,34.31 L 72.41,34.43 L 71.63,34.49 L 69.80,34.60 L 68.84,34.66 L 66.71,34.77 L 65.61,34.83 L 63.25,34.93 L 60.84,35.04 L 55.62,35.21 L 52.99,35.29 L 47.71,35.41 L 45.11,35.46 L 40.30,35.51 L 39.16,35.52 L 37.04,35.51 L 36.02,35.51 L 34.21,35.48 L 33.35,35.46 L 31.91,35.41 L 31.24,35.38 M 19.50,34.00 L 19.41,33.86 L 19.45,33.61 L 19.50,33.49 L 19.78,33.29 L 21.38,33.00 L 22.07,33.00 L 23.33,33.29 L 24.50,34.00 L 24.59,34.14 L 24.55,34.39 L 24.50,34.51 L 24.22,34.71 L 22.62,35.00 L 21.93,35.00 L 20.67,34.71 L 20.11,34.52 M 20.46,30.94 L 20.21,30.54 L 20.13,29.31 L 20.15,28.66 L 20.49,27.32 L 20.69,26.69 L 21.28,25.73 L 21.44,25.54 L 21.77,25.31 L 22.29,25.26 L 22.50,25.33 L 22.86,25.72 L 23.03,25.94 L 23.29,26.56 L 23.52,27.22 L 23.67,28.85 L 23.69,29.65 L 23.41,31.03 L 23.31,31.32 L 23.03,31.73 L 22.47,32.00 L 22.10,32.00 L 21.32,31.69 L 20.96,31.50 M 23.00,28.00 L 23.00,27.72 L 22.71,27.29 L 22.00,27.00 L 21.72,27.00 L 21.29,27.29 L 21.00,28.00 L 21.00,28.27 L 21.29,28.71 L 22.00,29.00 L 22.27,29.00 L 22.71,28.71 L 22.89,28.52 M 29.46,30.94 L 29.20,30.52 L 29.12,29.30 L 29.13,28.66 L 29.50,27.33 L 29.72,26.70 L 30.38,25.69 L 31.55,25.00 L 31.97,25.00 L 32.79,25.62 L 33.18,26.01 L 33.81,27.14 L 34.09,27.73 L 34.39,29.02 L 34.26,30.75 L 34.12,31.13 L 33.39,31.63 L 32.99,31.83 L 31.98,31.97 L 31.48,31.99 L 30.51,31.74 L 30.07,31.57 M 33.00,28.00 L 33.00,27.72 L 32.71,27.29 L 32.00,27.00 L 31.72,27.00 L 31.29,27.29 L 31.00,28.00 L 31.00,28.27 L 31.29,28.71 L 32.00,29.00 L 32.27,29.00 L 32.71,28.71 L 32.89,28.52 M 11.00,30.00 L 11.00,29.72 L 11.29,29.29 L 12.00,29.00 L 12.27,29.00 L 12.71,29.29 L 13.00,30.00 L 13.00,30.27 L 12.71,30.71 L 12.00,31.00 L 11.72,31.00 L 11.29,30.71 L 11.11,30.52 Z" fill="rgba(155,155,155,1)"/>
</g>
</svg>